<?xml version="1.0" encoding="utf-8"?>
<!-- Generator: Adobe Illustrator 23.1.0, SVG Export Plug-In . SVG Version: 6.00 Build 0)  -->
<svg version="1.1" id="Layer_1" xmlns="http://www.w3.org/2000/svg" xmlns:xlink="http://www.w3.org/1999/xlink" x="0px" y="0px"
	 viewBox="0 0 2995.2 1349" style="enable-background:new 0 0 2995.2 1349;" xml:space="preserve">
<style type="text/css">
	.st0{fill-rule:evenodd;clip-rule:evenodd;fill:#FFFFFF;}
	.st1{fill:#FFFFFF;}
	.st2{font-family:'SegoeUI-Light';}
	.st3{font-size:550.12px;}
	.st4{font-family:'SegoeUI-Bold';}
</style>
<title>Asset 1.3</title>
<g>
	<g id="Layer_1-2">
		<g id="Layer_1-2-2">
			<path class="st0" d="M399.6,512.2c148.7-92.2,341.8-89,490.8,0V310.3c-118.2-140.1-382.5-133.4-490.8,0L399.6,512.2 M284.1,153.3
				l-2.2,0.3v0.7L284.1,153.3z M281.9,371.3c12.8,8.7,16,26.2,7.3,38.9c-2.4,3.4-5.4,6.3-9.1,8.4c4.6,2.3,8.7,5.4,12.1,9.1l9.8,91.2
				c-21,16.9-51,16.9-72,0l9.7-91.1c3.4-3.8,7.5-6.9,12.1-9.2c-13.4-7.9-17.9-25.1-10-38.5c2.1-3.6,5-6.7,8.4-9v-32.4l0,0v-171l0,0
				v-28.2c0-8,5.9-14.7,13.8-15.8l127.7-16.2L645,0l645,273.9l-356.7,92.5v-62.1l-4.9-13.3c-12-14.3-25.4-27.3-39.9-39
				c-67.7-54.8-158.9-81.1-248.5-80.2s-178.9,29.1-242.5,82.7c-13.2,11.1-25.3,23.5-36.2,36.9l-4.6,12.9v62.1L281.9,347V371.3z
				 M0,273.9l218.2-92.7v149.2L0,273.9z"/>
			<path class="st0" d="M1612,1050.1l-230.8-72.8l-54.2,50.5l-312.8-138.4c0,0,20.5-57,15.5-137.4s-47-162.4-110-225.4
				c-150.8-150.8-397.4-150.8-548.3,0s-150.8,397.4,0,548.2L645.6,1349l332.6-380.6c0.3-0.3,319,157,319,157l12.4,74.3l223.5,114
				l-11.3-112.5l-1.2-18.8c0,0,19.3-10,21.7-26.7s-9-30.7-9-30.7l13-14.3L1612,1050.1z M645.8,1116.5c-177.3,0-321-143.7-321-321
				s143.7-321,321-321c160.4,0,293.3,117.7,317.1,271.4l-102.7,7h-0.1c-19.8-100.5-108.5-176.4-214.9-176.4c-120.9,0-219,98-219,219
				s98,219,219,219c50.6,0.1,99.7-17.5,138.8-49.6l73.9,71.4C799.5,1088.1,724,1116.6,645.8,1116.5L645.8,1116.5z M1512.8,1117.7
				l-156.6-45.6l149.6,53.1l11.4,4.2c0,0,18.1,15.1,10.3,28.3c-4.4,7.7-11.7,13.4-20.3,15.7l-173.8-70.3l170.8,82.3l6.4,92.1
				l-4.9-2.8l-9.5-74.3l2.3,70.3l-13.8-7.7l-44.8-47.4l3.9,30.2l-25.7-14.4l-6.9-46.2l-2.7,38l-8-1.7l-27.6-15.5l-12-56.5l1.5,50.6
				l-17.7-9.9l-5.8-49.7l-4.7,43.8l-9.6-5.4l-6-81.9L920,916.1l-56-21.3l-80.3,41l-116-155.3l224.2,11.7v72.7l-127-40.3l-0.8,1.1
				l126.5,58.6l26-2l413.3,178.5l55.6-56.8l18.8,5.7l-38.1,44.5l44.5-42.5l65.7,21.4l-53.8,23.9l64-20.8l-1,11.8l9.3-8.7l27.3,5.7
				l-34.3,29l47.7-22.7l36.3,10.7L1512.8,1117.7z"/>
			<text transform="matrix(1 0 0 1 1138.8199 858.53)" class="st1 st2 st3">Uni</text>
			<text transform="matrix(1 0 0 1 1940.91 1097.9)" class="st1 st4 st3">Info</text>
			<rect x="1924.6" y="413.5" class="st1" width="8.3" height="686.5"/>
		</g>
	</g>
</g>
</svg>
